<svg width="23" height="15" viewBox="0 0 23 15" fill="none" xmlns="http://www.w3.org/2000/svg">
<g clip-path="url(#clip0_13_94)">
<rect width="1728" height="1117" transform="translate(-1157 -29)" fill="white"/>
<path fill-rule="evenodd" clip-rule="evenodd" d="M10.4228 11.5424L6.49676 7.53447C5.39275 6.42718 7.04904 4.76568 8.15358 5.87297L9.49742 7.22583C9.80333 7.53393 10.0516 7.43178 10.0516 6.99777V1.61128C10.0516 0.967771 10.576 0.439512 11.2228 0.439512C11.8685 0.439512 12.3943 0.964205 12.3943 1.61128V6.99777C12.3943 7.4296 12.6423 7.53393 12.9485 7.22583L14.2926 5.87297C15.3969 4.76568 17.0534 6.42716 15.9494 7.53447L12.0638 11.537C11.6096 12.0049 10.8765 12.0057 10.4228 11.5424L10.4228 11.5424ZM5.34954 -4.25798V-1.90984C5.34954 -1.26087 4.82348 -0.735069 4.17477 -0.735069C3.52608 -0.735069 3 -1.26085 3 -1.90984V-5.43576C3 -6.30133 3.7058 -7 4.56641 -7H17.8797C18.7439 -7 19.4461 -6.29665 19.4461 -5.43576V-1.90984C19.4461 -1.26087 18.92 -0.735069 18.2713 -0.735069C17.6226 -0.735069 17.0965 -1.26085 17.0965 -1.90984V-4.25798C17.0965 -4.47922 16.9215 -4.65075 16.7057 -4.65075H5.74042C5.52465 -4.65075 5.34957 -4.47485 5.34957 -4.25798H5.34954Z" fill="#757575"/>
</g>
<defs>
<clipPath id="clip0_13_94">
<rect width="1728" height="1117" fill="white" transform="translate(-1157 -29)"/>
</clipPath>
</defs>
</svg>
