<svg width="20" height="20" viewBox="0 0 20 20" fill="none" xmlns="http://www.w3.org/2000/svg">
<path d="M19.7023 2.62798L17.3181 0.244019C17.1609 0.086792 16.9513 0 16.7285 0C16.5057 0 16.2961 0.0865056 16.1389 0.244019L13.8478 2.53503H2.12817C0.954849 2.53503 0 3.48959 0 4.6632V17.3752C0 18.5485 0.954555 19.5034 2.12817 19.5034H14.8401C16.0135 19.5034 16.9683 18.5488 16.9683 17.3752L16.9682 6.54058L19.7019 3.80685C20.027 3.48178 20.027 2.95285 19.7021 2.62765L19.7023 2.62798ZM7.34587 10.6314C8.19558 10.9712 8.9751 11.7508 9.31481 12.6004L6.93914 13.0069L7.34587 10.6314ZM10.1139 12.0524C9.67603 11.0983 8.84799 10.2702 7.89388 9.83239L15.2888 2.43745L17.5088 4.65744L10.1139 12.0524ZM16.0189 17.3753C16.0189 18.025 15.4904 18.5535 14.8407 18.5535H2.12832C1.47862 18.5535 0.950111 18.025 0.950111 17.3753L0.949968 4.66331C0.949968 4.01361 1.47848 3.48511 2.12818 3.48511H12.8981L6.61964 9.76397C6.55021 9.8334 6.50401 9.92278 6.48723 10.0198L5.89001 13.5085C5.86404 13.6604 5.91339 13.8155 6.02242 13.9245C6.11222 14.0143 6.23344 14.0635 6.35811 14.0635C6.38464 14.0635 6.41147 14.0614 6.4383 14.0566L9.92717 13.4594C10.024 13.4429 10.1134 13.3966 10.183 13.327L16.0193 7.49066L16.0189 17.3753ZM18.1805 3.98574L15.9605 1.76575L16.7287 0.997541L18.9487 3.21753L18.1805 3.98574Z" fill="#757575"/>
</svg>
