<svg width="15" height="15" viewBox="0 0 15 15" fill="none" xmlns="http://www.w3.org/2000/svg">
<path d="M-0.34206 6.53139L6.53102 6.53139V-0.313401C6.52324 -0.563575 6.61771 -0.806113 6.79265 -0.985152C7.18318 -1.37569 7.81633 -1.37569 8.20686 -0.985152C8.38541 -0.813255 8.48518 -0.575313 8.48263 -0.327543L8.44728 6.55261L15.3628 6.55261C15.5933 6.55006 15.8161 6.63612 15.985 6.79302C16.3756 7.18356 16.3756 7.8167 15.985 8.20724C15.8104 8.39702 15.5641 8.50472 15.3062 8.50422L8.46849 8.46887L8.46849 15.3278C8.47245 15.5732 8.37826 15.8099 8.20686 15.9854C7.81633 16.3759 7.18318 16.3759 6.79265 15.9854C6.6141 15.8135 6.51433 15.5756 6.51688 15.3278L6.55223 8.44765L-0.363274 8.44765C-0.593791 8.4502 -0.8166 8.36414 -0.985528 8.20724C-1.37606 7.8167 -1.37606 7.18356 -0.985528 6.79302C-0.813488 6.62508 -0.582547 6.53118 -0.34206 6.53139Z" fill="white"/>
</svg>
