<svg width="12" height="5" viewBox="0 0 12 5" fill="none" xmlns="http://www.w3.org/2000/svg">
<path d="M2.17898 4.13636L0.542614 4.04545C0.580493 3.03788 0.913826 2.21212 1.54261 1.56818C2.1714 0.924242 2.94034 0.602272 3.84943 0.602272C4.31155 0.602272 4.71686 0.685605 5.06534 0.852272C5.41383 1.01136 5.73958 1.19697 6.04261 1.40909C6.35322 1.61364 6.66761 1.79545 6.9858 1.95454C7.31155 2.11364 7.67898 2.19318 8.08807 2.19318C8.55019 2.19318 8.9517 2.02652 9.29261 1.69318C9.6411 1.35985 9.83807 0.946969 9.88352 0.454544L11.4858 0.636362C11.4328 1.65151 11.0881 2.46591 10.4517 3.07954C9.82292 3.68561 9.06534 3.98864 8.17898 3.98864C7.6714 3.98864 7.24337 3.90909 6.89489 3.75C6.55398 3.58333 6.24337 3.39773 5.96307 3.19318C5.69034 2.98106 5.39489 2.79545 5.0767 2.63636C4.7661 2.47727 4.38731 2.39773 3.94034 2.39773C3.45549 2.39773 3.0464 2.56439 2.71307 2.89773C2.38731 3.23106 2.20928 3.64394 2.17898 4.13636Z" fill="white"/>
</svg>
